<svg width="1600" height="900" viewBox="0 0 1600 900" fill="none" xmlns="http://www.w3.org/2000/svg">
  <defs>
    <linearGradient id="page" x1="0" y1="0" x2="1600" y2="900" gradientUnits="userSpaceOnUse">
      <stop stop-color="#0c0b1c"/>
      <stop offset="0.52" stop-color="#141229"/>
      <stop offset="1" stop-color="#0b0b18"/>
    </linearGradient>
    <linearGradient id="panel" x1="0" y1="0" x2="0" y2="1">
      <stop stop-color="#332d4d"/>
      <stop offset="1" stop-color="#201c36"/>
    </linearGradient>
    <linearGradient id="cardPink" x1="0" y1="0" x2="1" y2="1">
      <stop stop-color="#4a314c"/>
      <stop offset="1" stop-color="#332942"/>
    </linearGradient>
    <linearGradient id="cardBlue" x1="0" y1="0" x2="1" y2="1">
      <stop stop-color="#273848"/>
      <stop offset="1" stop-color="#24263d"/>
    </linearGradient>
    <linearGradient id="cta" x1="0" y1="0" x2="1" y2="1">
      <stop stop-color="#a49aff"/>
      <stop offset="1" stop-color="#e5a1c7"/>
    </linearGradient>
    <filter id="softShadow" x="-20%" y="-30%" width="140%" height="160%">
      <feDropShadow dx="0" dy="18" stdDeviation="20" flood-color="#050510" flood-opacity="0.45"/>
    </filter>
    <pattern id="grid" width="24" height="24" patternUnits="userSpaceOnUse">
      <path d="M 24 0 L 0 0 0 24" stroke="#ffffff" stroke-opacity="0.025"/>
    </pattern>
  </defs>

  <rect width="1600" height="900" fill="url(#page)"/>
  <rect width="1600" height="900" fill="url(#grid)"/>

  <rect x="24" y="20" width="1552" height="64" rx="16" fill="url(#panel)" stroke="#6e638e" stroke-opacity="0.55"/>
  <rect x="48" y="34" width="38" height="38" rx="10" fill="#ffffff" fill-opacity="0.06" stroke="#ffffff" stroke-opacity="0.14"/>
  <path d="M68 44 L58 53 L68 62" stroke="#d7d0ea" stroke-width="2" stroke-linecap="round" stroke-linejoin="round"/>
  <rect x="100" y="34" width="38" height="38" rx="10" fill="#ffffff" fill-opacity="0.06" stroke="#ffffff" stroke-opacity="0.14"/>
  <circle cx="119" cy="53" r="5" fill="#e7a4c7"/>
  <text x="154" y="47" fill="#9d96ac" font-family="Inter, Arial" font-size="12" letter-spacing="5">WORKSPACE / RETROD</text>
  <text x="154" y="68" fill="#f2edf7" font-family="Inter, Arial" font-size="18" font-weight="700">WORK TODO</text>
  <g transform="translate(1186 34)">
    <rect width="38" height="38" rx="10" fill="#ffffff" fill-opacity="0.055" stroke="#ffffff" stroke-opacity="0.14"/>
    <path d="M16 12 V25 M22 14 V23 M11 18 H27" stroke="#cfc7e8" stroke-width="1.7" stroke-linecap="round"/>
  </g>
  <g transform="translate(1234 34)">
    <rect width="38" height="38" rx="10" fill="#ffffff" fill-opacity="0.055" stroke="#ffffff" stroke-opacity="0.14"/>
    <circle cx="19" cy="19" r="7" stroke="#cfc7e8" stroke-width="1.7"/>
    <path d="M19 11 V8" stroke="#cfc7e8" stroke-width="1.7" stroke-linecap="round"/>
  </g>
  <g transform="translate(1282 34)">
    <rect width="38" height="38" rx="10" fill="#ffffff" fill-opacity="0.055" stroke="#ffffff" stroke-opacity="0.14"/>
    <path d="M24 22.5C19.5 25.5 13 22.5 13 17C13 13.8 15 11 18 9.8C17.3 15 20 19.7 24 22.5Z" stroke="#cfc7e8" stroke-width="1.7" stroke-linejoin="round"/>
  </g>
  <rect x="1334" y="34" width="108" height="38" rx="10" fill="#ffffff" fill-opacity="0.055" stroke="#ffffff" stroke-opacity="0.14"/>
  <text x="1356" y="58" fill="#d7d0ea" font-family="Inter, Arial" font-size="13">Command</text>
  <circle cx="1508" cy="53" r="19" fill="#d7c7b4"/>
  <circle cx="1522" cy="67" r="5" fill="#6ee7a8"/>

  <rect x="24" y="104" width="1552" height="118" rx="16" fill="url(#panel)" stroke="#6e638e" stroke-opacity="0.5" filter="url(#softShadow)"/>
  <g transform="translate(48 128)">
    <text fill="#e7bd72" font-family="Inter, Arial" font-size="12" letter-spacing="6">BOARD CHANNEL</text>
    <text y="32" fill="#f4f0f8" font-family="Inter, Arial" font-size="24" font-weight="750">RETROD Board</text>
    <text y="56" fill="#a8a0b7" font-family="Inter, Arial" font-size="14">Drag cards across columns. Press F for focus.</text>
  </g>
  <g transform="translate(48 180)">
    <rect width="170" height="32" rx="10" fill="#ffffff" fill-opacity="0.055" stroke="#ffffff" stroke-opacity="0.11"/>
    <text x="18" y="21" fill="#d8d0e9" font-family="Inter, Arial" font-size="13">Search cards...</text>
    <rect x="184" width="76" height="32" rx="10" fill="#ffffff" fill-opacity="0.055" stroke="#ffffff" stroke-opacity="0.11"/>
    <text x="204" y="21" fill="#f0edf7" font-family="Inter, Arial" font-size="13">Today</text>
    <rect x="274" width="78" height="32" rx="10" fill="#ffffff" fill-opacity="0.055" stroke="#ffffff" stroke-opacity="0.11"/>
    <text x="294" y="21" fill="#f0edf7" font-family="Inter, Arial" font-size="13">Focus</text>
    <rect x="366" width="92" height="32" rx="10" fill="url(#cta)"/>
    <text x="388" y="21" fill="#151225" font-family="Inter, Arial" font-size="13" font-weight="700">+ Column</text>
  </g>

  <g transform="translate(866 124)">
    <rect width="112" height="54" rx="10" fill="#111024" stroke="#7d70a3" stroke-opacity="0.55"/>
    <text x="14" y="20" fill="#9c92aa" font-family="Inter, Arial" font-size="10" letter-spacing="2">TOTAL</text>
    <text x="14" y="43" fill="#f3f0f7" font-family="Inter, Arial" font-size="22" font-weight="750">8</text>
    <rect x="990" width="112" height="54" rx="10" fill="#111024" stroke="#a59cff" stroke-opacity="0.5"/>
    <text x="1004" y="20" fill="#a59cff" font-family="Inter, Arial" font-size="10" letter-spacing="2">DOING</text>
    <text x="1004" y="43" fill="#a59cff" font-family="Inter, Arial" font-size="22" font-weight="750">3</text>
    <rect x="1114" width="112" height="54" rx="10" fill="#111024" stroke="#e7bd72" stroke-opacity="0.5"/>
    <text x="1128" y="20" fill="#e7bd72" font-family="Inter, Arial" font-size="10" letter-spacing="2">DONE</text>
    <text x="1128" y="43" fill="#e7bd72" font-family="Inter, Arial" font-size="22" font-weight="750">2</text>
    <rect x="1238" width="112" height="54" rx="10" fill="#111024" stroke="#e7a4c7" stroke-opacity="0.5"/>
    <text x="1252" y="20" fill="#e7a4c7" font-family="Inter, Arial" font-size="10" letter-spacing="2">OVERDUE</text>
    <text x="1252" y="43" fill="#e7a4c7" font-family="Inter, Arial" font-size="22" font-weight="750">1</text>
  </g>

  <g transform="translate(1468 124)">
    <circle cx="42" cy="42" r="36" fill="#fff4b5"/>
    <path d="M17 43 C28 24 53 18 69 37 C61 28 40 31 32 52 C43 45 57 47 68 58 C49 59 29 58 17 43Z" fill="#8172d8" stroke="#4b3c84" stroke-width="4"/>
    <ellipse cx="42" cy="49" rx="34" ry="8" fill="none" stroke="#e6a3c6" stroke-width="5"/>
    <circle cx="62" cy="28" r="3" fill="#ffef9f"/>
  </g>

  <g transform="translate(24 242)">
    <rect width="1532" height="630" rx="18" fill="#151429" stroke="#50486d" stroke-opacity="0.5"/>
    <g transform="translate(18 18)">
      <rect width="86" height="594" rx="14" fill="#27223d" stroke="#655b83" stroke-opacity="0.55"/>
      <text x="34" y="44" fill="#e7bd72" font-family="Inter, Arial" font-size="22">+</text>
      <text x="32" y="104" fill="#e7bd72" font-family="Inter, Arial" font-size="18">□</text>
      <rect x="31" y="184" width="24" height="24" rx="6" fill="#ffffff" fill-opacity="0.07"/>
      <text x="39" y="202" fill="#d8d0ea" font-family="Inter, Arial" font-size="14">1</text>
      <text x="22" y="560" fill="#b9b0c9" font-family="Inter, Arial" font-size="12" transform="rotate(-90 22 560)">Backlog</text>
    </g>

    <g transform="translate(124 18)">
      <rect width="430" height="594" rx="14" fill="#1e1b33" stroke="#665d82" stroke-opacity="0.55"/>
      <rect width="430" height="50" rx="14" fill="#25213b"/>
      <text x="22" y="31" fill="#f1edf7" font-family="Inter, Arial" font-size="16" font-weight="700">Backlog</text>
      <text x="330" y="31" fill="#a29aaa" font-family="Inter, Arial" font-size="12">0/4</text>
      <rect x="372" y="14" width="28" height="22" rx="8" fill="#ffffff" fill-opacity="0.06"/>
      <text x="383" y="30" fill="#d9d2e8" font-family="Inter, Arial" font-size="13">4</text>

      <rect x="18" y="70" width="394" height="118" rx="14" fill="url(#cardPink)" stroke="#c57da4" stroke-opacity="0.65"/>
      <text x="36" y="100" fill="#f7f2fa" font-family="Inter, Arial" font-size="17" font-weight="750">Draft finance UX</text>
      <text x="36" y="126" fill="#bdb4ca" font-family="Inter, Arial" font-size="13">Clean up recurring income flow</text>
      <rect x="36" y="148" width="70" height="24" rx="12" fill="#a59cff" fill-opacity="0.16" stroke="#a59cff" stroke-opacity="0.35"/>
      <text x="53" y="165" fill="#bfb8ff" font-family="Inter, Arial" font-size="11">Doing</text>
      <rect x="116" y="148" width="70" height="24" rx="12" fill="#e7a4c7" fill-opacity="0.13" stroke="#e7a4c7" stroke-opacity="0.3"/>
      <text x="136" y="165" fill="#e7a4c7" font-family="Inter, Arial" font-size="11">High</text>
      <text x="360" y="103" fill="#f5d877" font-family="Inter, Arial" font-size="21">★</text>

      <rect x="18" y="202" width="394" height="96" rx="14" fill="#292642" stroke="#756b92" stroke-opacity="0.45"/>
      <text x="36" y="233" fill="#f7f2fa" font-family="Inter, Arial" font-size="16" font-weight="700">Sticker picker polish</text>
      <text x="36" y="259" fill="#bdb4ca" font-family="Inter, Arial" font-size="13">Use shared Retro Stickers</text>

      <rect x="18" y="314" width="394" height="64" rx="14" fill="#222038" stroke="#756b92" stroke-opacity="0.35"/>
      <text x="178" y="354" fill="#9d94aa" font-family="Inter, Arial" font-size="13">+ Quick add</text>
    </g>

    <g transform="translate(574 18)">
      <rect width="430" height="594" rx="14" fill="#1e1b33" stroke="#665d82" stroke-opacity="0.55"/>
      <rect width="430" height="50" rx="14" fill="#25213b"/>
      <text x="22" y="31" fill="#f1edf7" font-family="Inter, Arial" font-size="16" font-weight="700">In Progress</text>
      <rect x="318" y="14" width="54" height="22" rx="8" fill="#e7bd72" fill-opacity="0.1" stroke="#e7bd72" stroke-opacity="0.25"/>
      <text x="330" y="30" fill="#e7bd72" font-family="Inter, Arial" font-size="11">LIMIT 4</text>
      <rect x="384" y="14" width="28" height="22" rx="8" fill="#ffffff" fill-opacity="0.06"/>
      <text x="395" y="30" fill="#d9d2e8" font-family="Inter, Arial" font-size="13">3</text>

      <rect x="18" y="70" width="394" height="120" rx="14" fill="url(#cardBlue)" stroke="#8dd3e9" stroke-opacity="0.5"/>
      <text x="36" y="101" fill="#f7f2fa" font-family="Inter, Arial" font-size="17" font-weight="750">Calendar compact pass</text>
      <text x="36" y="127" fill="#bdb4ca" font-family="Inter, Arial" font-size="13">Keep everything in one viewport</text>
      <rect x="36" y="150" width="85" height="24" rx="12" fill="#8dd3e9" fill-opacity="0.14" stroke="#8dd3e9" stroke-opacity="0.3"/>
      <text x="52" y="167" fill="#8dd3e9" font-family="Inter, Arial" font-size="11">Today</text>
      <text x="342" y="105" fill="#ffe27c" font-family="Inter, Arial" font-size="24">✦</text>

      <rect x="18" y="204" width="394" height="104" rx="14" fill="#2c2740" stroke="#a59cff" stroke-opacity="0.45"/>
      <text x="36" y="235" fill="#f7f2fa" font-family="Inter, Arial" font-size="16" font-weight="700">Board header refresh</text>
      <text x="36" y="261" fill="#bdb4ca" font-family="Inter, Arial" font-size="13">Stats top right, filters lower left</text>
      <rect x="36" y="278" width="118" height="18" rx="9" fill="#ffffff" fill-opacity="0.07"/>

      <rect x="18" y="326" width="394" height="74" rx="14" fill="#211f36" stroke="#756b92" stroke-opacity="0.35"/>
      <text x="164" y="370" fill="#9d94aa" font-family="Inter, Arial" font-size="13">Drop a card here</text>
    </g>

    <g transform="translate(1024 18)">
      <rect width="430" height="594" rx="14" fill="#1e1b33" stroke="#665d82" stroke-opacity="0.55"/>
      <rect width="430" height="50" rx="14" fill="#25213b"/>
      <text x="22" y="31" fill="#f1edf7" font-family="Inter, Arial" font-size="16" font-weight="700">Done</text>
      <rect x="384" y="14" width="28" height="22" rx="8" fill="#ffffff" fill-opacity="0.06"/>
      <text x="395" y="30" fill="#d9d2e8" font-family="Inter, Arial" font-size="13">2</text>

      <rect x="18" y="70" width="394" height="96" rx="14" fill="#263a36" stroke="#72e0b0" stroke-opacity="0.45"/>
      <text x="36" y="101" fill="#f7f2fa" font-family="Inter, Arial" font-size="16" font-weight="700">Reward icon merge</text>
      <text x="36" y="127" fill="#bdb4ca" font-family="Inter, Arial" font-size="13">Shared icon catalog ready</text>
      <text x="356" y="106" fill="#ffe27c" font-family="Inter, Arial" font-size="22">★</text>

      <rect x="18" y="184" width="394" height="96" rx="14" fill="#2d2940" stroke="#e7bd72" stroke-opacity="0.4"/>
      <text x="36" y="215" fill="#f7f2fa" font-family="Inter, Arial" font-size="16" font-weight="700">Diary checklist logic</text>
      <text x="36" y="241" fill="#bdb4ca" font-family="Inter, Arial" font-size="13">Recurring items feel calmer</text>

      <rect x="18" y="306" width="394" height="64" rx="14" fill="#222038" stroke="#756b92" stroke-opacity="0.35"/>
      <text x="178" y="346" fill="#9d94aa" font-family="Inter, Arial" font-size="13">+ Add card</text>
    </g>
  </g>
</svg>
